<svg width="30" height="29" viewBox="0 0 30 29" fill="none" xmlns="http://www.w3.org/2000/svg">
<path fill-rule="evenodd" clip-rule="evenodd" d="M29.0088 14.3944C27.3941 13.2731 26.6874 10.7694 26.6874 10.7694L22.8326 11.5311L22.5393 8.56189C20.1119 8.60421 18.5608 7.59216 18.3558 5.86779C20.808 6.7 22.4439 3.54395 25.5603 4.23158L27.5354 0L29.348 0.25742L28.7014 6.67884C29.6166 8.68884 29.2809 11.5769 29.0088 14.3944ZM21.186 10.2228L21.4298 13.3965L25.6522 13.0897C26.0146 14.0361 26.5056 14.9284 27.1114 15.7415C24.4756 21.9443 17.6068 28.9652 8.23637 28.9652C-1.8407 28.9652 -2.4449 15.075 5.1871 13.8232C12.8191 12.5713 16.1404 10.5931 18.0944 8.844C18.4585 9.30737 18.9304 9.67512 19.4692 9.91538C20.0079 10.1556 20.5972 10.2612 21.186 10.2228Z" fill="#7200E0"/>
</svg>
